HIERARCHY
ROOT Hips
{
    OFFSET   0.000000   0.000000   0.000000
    CHANNELS 6 Xposition Yposition Zposition Zrotation Xrotation Yrotation
    JOINT Chest
    {
        OFFSET   0.000000   8.007230   0.000000
        CHANNELS 3 Zrotation Xrotation Yrotation
        JOINT Chest2
        {
            OFFSET   0.000000  22.077100   0.000000
            CHANNELS 3 Zrotation Xrotation Yrotation
            JOINT Neck
            {
                OFFSET   0.000000  23.254800   0.000000
                CHANNELS 3 Zrotation Xrotation Yrotation
                JOINT Head
                {
                    OFFSET   0.000010  14.370000   1.956600
                    CHANNELS 3 Zrotation Xrotation Yrotation
                    End Site
                    {
                        OFFSET   0.000000  19.566000   0.000000
                    }
                }
            }
            JOINT LeftCollar
            {
                OFFSET   3.911900  19.017000  -0.467062
                CHANNELS 3 Zrotation Xrotation Yrotation
                JOINT LeftShoulder
                {
                    OFFSET  10.383700   0.000000   0.000000
                    CHANNELS 3 Zrotation Xrotation Yrotation
                    JOINT LeftElbow
                    {
                        OFFSET  26.662100   0.001193   0.000835
                        CHANNELS 3 Zrotation Xrotation Yrotation
                        JOINT LeftWrist
                        {
                            OFFSET  28.869000  -0.000058  -0.000075
                            CHANNELS 3 Zrotation Xrotation Yrotation
                            JOINT LeftFinger0
                            {
                                OFFSET   2.044660  -2.323460   3.252850
                                CHANNELS 3 Zrotation Xrotation Yrotation
                                JOINT LeftFinger01
                                {
                                    OFFSET   3.088130   0.000000   0.000000
                                    CHANNELS 3 Zrotation Xrotation Yrotation
                                    JOINT LeftFinger02
                                    {
                                        OFFSET   2.639450   0.000000   0.000000
                                        CHANNELS 3 Zrotation Xrotation Yrotation
                                        End Site
                                        {
                                            OFFSET   2.582190   0.000000   0.000000
                                        }
                                    }
                                }
                            }
                            JOINT LeftFinger1
                            {
                                OFFSET   8.364480   0.000000   3.252850
                                CHANNELS 3 Zrotation Xrotation Yrotation
                                JOINT LeftFinger11
                                {
                                    OFFSET   4.646920   0.000000   0.000000
                                    CHANNELS 3 Zrotation Xrotation Yrotation
                                    JOINT LeftFinger12
                                    {
                                        OFFSET   2.323460   0.000000   0.000000
                                        CHANNELS 3 Zrotation Xrotation Yrotation
                                        End Site
                                        {
                                            OFFSET   2.273050   0.000000   0.000000
                                        }
                                    }
                                }
                            }
                            JOINT LeftFinger2
                            {
                                OFFSET   8.364490   0.000016   1.078090
                                CHANNELS 3 Zrotation Xrotation Yrotation
                                JOINT LeftFinger21
                                {
                                    OFFSET   5.111620   0.000000   0.000000
                                    CHANNELS 3 Zrotation Xrotation Yrotation
                                    JOINT LeftFinger22
                                    {
                                        OFFSET   2.788150   0.000012   0.000000
                                        CHANNELS 3 Zrotation Xrotation Yrotation
                                        End Site
                                        {
                                            OFFSET   2.727660   0.000000   0.000000
                                        }
                                    }
                                }
                            }
                            JOINT LeftFinger3
                            {
                                OFFSET   7.899780   0.000014  -1.078090
                                CHANNELS 3 Zrotation Xrotation Yrotation
                                JOINT LeftFinger31
                                {
                                    OFFSET   4.646930   0.000000   0.000000
                                    CHANNELS 3 Zrotation Xrotation Yrotation
                                    JOINT LeftFinger32
                                    {
                                        OFFSET   2.323470   0.000000   0.000000
                                        CHANNELS 3 Zrotation Xrotation Yrotation
                                        End Site
                                        {
                                            OFFSET   2.273050   0.000000   0.000000
                                        }
                                    }
                                }
                            }
                            JOINT LeftFinger4
                            {
                                OFFSET   7.435090   0.000000  -3.252850
                                CHANNELS 3 Zrotation Xrotation Yrotation
                                JOINT LeftFinger41
                                {
                                    OFFSET   3.717550   0.000000   0.000000
                                    CHANNELS 3 Zrotation Xrotation Yrotation
                                    JOINT LeftFinger42
                                    {
                                        OFFSET   1.858770   0.000000   0.000000
                                        CHANNELS 3 Zrotation Xrotation Yrotation
                                        End Site
                                        {
                                            OFFSET   1.818440   0.000000   0.000000
                                        }
                                    }
                                }
                            }
                        }
                    }
                }
            }
            JOINT RightCollar
            {
                OFFSET  -3.911900  19.017000  -0.467063
                CHANNELS 3 Zrotation Xrotation Yrotation
                JOINT RightShoulder
                {
                    OFFSET -10.383700   0.000023   0.000000
                    CHANNELS 3 Zrotation Xrotation Yrotation
                    JOINT RightElbow
                    {
                        OFFSET -26.662100   0.001246   0.001011
                        CHANNELS 3 Zrotation Xrotation Yrotation
                        JOINT RightWrist
                        {
                            OFFSET -28.869000  -0.000026  -0.000078
                            CHANNELS 3 Zrotation Xrotation Yrotation
                            JOINT RightFinger0
                            {
                                OFFSET  -2.044660  -2.323490   3.252850
                                CHANNELS 3 Zrotation Xrotation Yrotation
                                JOINT RightFinger01
                                {
                                    OFFSET  -3.088130   0.000000   0.000000
                                    CHANNELS 3 Zrotation Xrotation Yrotation
                                    JOINT RightFinger02
                                    {
                                        OFFSET  -2.639460   0.000000   0.000000
                                        CHANNELS 3 Zrotation Xrotation Yrotation
                                        End Site
                                        {
                                            OFFSET  -2.582190   0.000000   0.000000
                                        }
                                    }
                                }
                            }
                            JOINT RightFinger1
                            {
                                OFFSET  -8.364480   0.000000   3.252850
                                CHANNELS 3 Zrotation Xrotation Yrotation
                                JOINT RightFinger11
                                {
                                    OFFSET  -4.646920   0.000000   0.000000
                                    CHANNELS 3 Zrotation Xrotation Yrotation
                                    JOINT RightFinger12
                                    {
                                        OFFSET  -2.323470   0.000000   0.000000
                                        CHANNELS 3 Zrotation Xrotation Yrotation
                                        End Site
                                        {
                                            OFFSET  -2.273050   0.000000   0.000000
                                        }
                                    }
                                }
                            }
                            JOINT RightFinger2
                            {
                                OFFSET  -8.364480   0.000000   1.078090
                                CHANNELS 3 Zrotation Xrotation Yrotation
                                JOINT RightFinger21
                                {
                                    OFFSET  -5.111620   0.000000   0.000000
                                    CHANNELS 3 Zrotation Xrotation Yrotation
                                    JOINT RightFinger22
                                    {
                                        OFFSET  -2.788160   0.000000   0.000000
                                        CHANNELS 3 Zrotation Xrotation Yrotation
                                        End Site
                                        {
                                            OFFSET  -2.727660   0.000000   0.000000
                                        }
                                    }
                                }
                            }
                            JOINT RightFinger3
                            {
                                OFFSET  -7.899780   0.000000  -1.078090
                                CHANNELS 3 Zrotation Xrotation Yrotation
                                JOINT RightFinger31
                                {
                                    OFFSET  -4.646930   0.000000   0.000000
                                    CHANNELS 3 Zrotation Xrotation Yrotation
                                    JOINT RightFinger32
                                    {
                                        OFFSET  -2.323470   0.000000   0.000000
                                        CHANNELS 3 Zrotation Xrotation Yrotation
                                        End Site
                                        {
                                            OFFSET  -2.273050   0.000000   0.000000
                                        }
                                    }
                                }
                            }
                            JOINT RightFinger4
                            {
                                OFFSET  -7.435090   0.000000  -3.252850
                                CHANNELS 3 Zrotation Xrotation Yrotation
                                JOINT RightFinger41
                                {
                                    OFFSET  -3.717550   0.000000   0.000000
                                    CHANNELS 3 Zrotation Xrotation Yrotation
                                    JOINT RightFinger42
                                    {
                                        OFFSET  -1.858760   0.000000   0.000000
                                        CHANNELS 3 Zrotation Xrotation Yrotation
                                        End Site
                                        {
                                            OFFSET  -1.818440   0.000000   0.000000
                                        }
                                    }
                                }
                            }
                        }
                    }
                }
            }
        }
    }
    JOINT LeftHip
    {
        OFFSET   9.783010   0.000000   0.000000
        CHANNELS 3 Zrotation Xrotation Yrotation
        JOINT LeftKnee
        {
            OFFSET   0.000073 -41.789100   0.001749
            CHANNELS 3 Zrotation Xrotation Yrotation
            JOINT LeftAnkle
            {
                OFFSET   0.000111 -41.133200  -0.000179
                CHANNELS 3 Zrotation Xrotation Yrotation
                JOINT LeftToe
                {
                    OFFSET   0.000000  -6.358960  14.674500
                    CHANNELS 3 Zrotation Xrotation Yrotation
                    End Site
                    {
                        OFFSET   0.000000   0.000000   3.913200
                    }
                }
            }
        }
    }
    JOINT RightHip
    {
        OFFSET  -9.783010   0.000000   0.000000
        CHANNELS 3 Zrotation Xrotation Yrotation
        JOINT RightKnee
        {
            OFFSET   0.000424 -41.789200   0.005205
            CHANNELS 3 Zrotation Xrotation Yrotation
            JOINT RightAnkle
            {
                OFFSET   0.000000 -41.133200  -0.000155
                CHANNELS 3 Zrotation Xrotation Yrotation
                JOINT RightToe
                {
                    OFFSET   0.000000  -6.358960  14.674500
                    CHANNELS 3 Zrotation Xrotation Yrotation
                    End Site
                    {
                        OFFSET   0.000000   0.000000   3.913200
                    }
                }
            }
        }
    }
}
MOTION
Frames: 4
Frame Time:   0.016667
 -1.291290  89.619100  -1.593460  -3.299590 -10.119100  -2.089320   0.785884   5.290200  -0.095252   1.590880  10.578600  -0.265434   1.608600   0.514061  -0.020859   2.643380   1.040200   0.606747  -3.735830  -0.219906   0.604671 -74.937100  16.255300  -1.878100  -0.813276   0.446988 -18.966100  19.294000 -12.269200   8.566150  42.218300  38.773600 -69.764000 -32.337000   0.002464   0.001611 -11.168500   0.000834   0.006177 -33.014700   5.973410  -9.099290 -27.401200  -0.003031   0.012422 -19.180900  -0.004170   0.003762 -28.924800  -1.468150   2.654630 -43.438100   0.003439   0.011535 -28.929800  -0.011474  -0.002332 -28.748800  -1.460000   2.659120 -41.435100   0.003732  -0.004589 -27.597900   0.003606   0.003109 -34.912500  -1.737160   2.487010 -52.425300   0.004891   0.004933 -34.915300   0.003948   0.000715  10.621200   0.887693   3.796680  68.373900  12.170700   0.524413  -3.359930  -9.635420  16.616000 -13.322100  -6.561530   1.564640 -47.944400  28.291700  55.277800  13.735700   0.005406  -0.004733   1.867860   0.003230  -0.002475  18.834700   2.638150   7.685640  15.555000  -0.000266  -0.004843  10.888500   0.004854  -0.003309  22.199300   1.931400   4.721280  22.278300   0.014177  -0.003834  14.837300  -0.000077  -0.005876  19.588400   1.298810   3.644790  19.629100   0.016072  -0.003072  13.073000   0.002831  -0.005493  24.670200   1.303670   2.835920  37.052400  -0.010431  -0.006956  24.676900  -0.004707  -0.002960   3.931340  11.886800   3.157170   1.521350   0.064490   8.042330  -4.645630  -2.414000  -0.492737   0.000000   0.000000  -0.000000   3.352140  10.032700  -3.822590  -0.969238   3.665930 -10.078900   0.181078  -4.542750  -0.710816  -0.000000   0.000000  -0.000000
 -1.297990  89.620400  -1.625640  -3.290390 -10.155300  -2.031460   0.776823   5.321860  -0.091201   1.571120  10.642000  -0.256916   1.624630   0.510332  -0.020832   2.669700   1.032280   0.587098  -3.719740  -0.242145   0.581757 -74.914800  16.315000  -1.931170  -0.808659   0.421664 -18.996300  19.282300 -12.287200   8.584660  42.113700  38.726800 -69.767200 -32.429700   0.002462   0.001644 -11.214900   0.000835   0.006183 -33.082100   5.932640  -9.020840 -27.450200  -0.003031   0.012427 -19.215100  -0.004170   0.003759 -28.932800  -1.492380   2.697420 -43.451700   0.003440   0.011538 -28.938900  -0.011478  -0.002333 -28.746600  -1.483640   2.702230 -41.434900   0.003732  -0.004590 -27.597600   0.003606   0.003107 -34.902300  -1.764890   2.527620 -52.411800   0.004892   0.004935 -34.906300   0.003948   0.000715  10.682400   0.799231   3.817610  68.430100  12.195000   0.485650  -3.410540  -9.810530  16.795400 -13.359100  -6.500610   1.417220 -48.007900  28.346700  55.338700  13.717900   0.005330  -0.004665   1.858950   0.003231  -0.003446  18.887700   2.616210   7.599960  15.597100  -0.000296  -0.004744  10.918000   0.004828  -0.003238  22.210200   1.877820   4.587640  22.287200   0.014178  -0.003623  14.843300  -0.000114  -0.005780  19.614900   1.252480   3.510150  19.655600   0.016082  -0.002872  13.090600   0.002800  -0.005429  24.748500   1.232620   2.672520  37.167000  -0.010379  -0.006807  24.753200  -0.004651  -0.002875   3.934700  11.889100   3.156890   1.519170   0.078492   8.014440  -4.649880  -2.401960  -0.520388  -0.000000   0.000000  -0.000000   3.367510  10.033000  -3.822400  -0.984445   3.702000 -10.054600   0.174643  -4.550900  -0.801892   0.000000   0.000000   0.000000
 -1.309860  89.623400  -1.678460  -3.276450 -10.226100  -1.940680   0.764649   5.377660  -0.078958   1.547060  10.753700  -0.231911   1.648790   0.506602  -0.020764   2.709380   1.024370   0.532806  -3.703910  -0.264386   0.506308 -74.870300  16.409900  -2.015760  -0.808409   0.383314 -19.047100  19.256600 -12.312200   8.611270  41.954000  38.680000 -69.770500 -32.559300   0.002459   0.001677 -11.279700   0.000839   0.006189 -33.179800   5.886920  -8.914610 -27.522900  -0.003032   0.012437 -19.266000  -0.004170   0.003755 -28.947600  -1.528790   2.761410 -43.476500   0.003441   0.011546 -28.955400  -0.011485  -0.002334 -28.743300  -1.519030   2.766800 -41.434700   0.003732  -0.004592 -27.597300   0.003606   0.003104 -34.887600  -1.806430   2.588420 -52.392500   0.004894   0.004941 -34.893400   0.003948   0.000715  10.771900   0.646837   3.838500  68.518500  12.243600   0.420106  -3.454660 -10.073900  17.253100 -13.527500  -6.071740   1.158160 -48.215500  28.567800  55.639900  13.593200   0.005206  -0.004550   1.796620   0.003231  -0.005294  18.940600   2.594260   7.514280  15.639200  -0.000347  -0.004580  10.947500   0.004776  -0.003118  22.220900   1.824210   4.454010  22.296100   0.014180  -0.003411  14.849200  -0.000196  -0.005618  19.641200   1.206120   3.375500  19.682100   0.016104  -0.002672  13.108300   0.002727  -0.005321  24.826500   1.161550   2.509140  37.281600  -0.010277  -0.006557  24.829600  -0.004557  -0.002732   3.941970  11.905300   3.154920   1.515640   0.092500   7.970130  -4.658120  -2.371270  -0.559412   0.000000   0.000000   0.000000   3.398130  10.034800  -3.822230  -1.016850   3.771090 -10.004200   0.164584  -4.567010  -0.956120  -0.000000   0.000000  -0.000000
 -1.321310  89.627700  -1.719500  -3.267830 -10.302900  -1.869240   0.759747   5.427810  -0.055729   1.537040  10.854400  -0.185335   1.662400   0.510240  -0.020656   2.731730   1.031870   0.441809  -3.704950  -0.255290   0.364518 -74.820900  16.470800  -2.077860  -0.815712   0.364154 -19.087000  19.222000 -12.322800   8.625110  41.906800  38.697000 -69.806800 -32.612400   0.002471   0.001664 -11.306200   0.000850   0.006186 -33.232000   5.881180  -8.881430 -27.564000  -0.003031   0.012445 -19.294800  -0.004172   0.003757 -28.963800  -1.552660   2.803430 -43.502800   0.003441   0.011557 -28.972800  -0.011494  -0.002332 -28.741100  -1.541940   2.809330 -41.435200   0.003734  -0.004595 -27.597400   0.003611   0.003101 -34.880100  -1.833580   2.628540 -52.383200   0.004895   0.004946 -34.887200   0.003948   0.000716  10.821300   0.507243   3.791440  68.579400  12.270800   0.351695  -3.377340 -10.266200  17.921500 -13.950200  -4.954930   0.860608 -48.698100  28.969400  56.397600  13.168800   0.005088  -0.004433   1.584390   0.004447  -0.007307  18.924800   2.640130   7.645330  15.634700  -0.000397  -0.004413  10.944300   0.004712  -0.002997  22.166600   1.871150   4.577950  22.248300   0.014183  -0.003858  14.817400  -0.000316  -0.005453  19.608400   1.265420   3.543620  19.656700   0.016140  -0.003151  13.091400   0.002618  -0.005206  24.817300   1.189120   2.567900  37.271100  -0.010144  -0.006304  24.822600  -0.004464  -0.002588   3.950890  11.962300   3.144670   1.515700   0.046599   7.936790  -4.666650  -2.319720  -0.577264   0.000000   0.000000  -0.000000   3.435860  10.044100  -3.829890  -1.058840   3.843980  -9.943680   0.157880  -4.585050  -1.089890  -0.000000   0.000000   0.000000
